<svg xmlns="http://www.w3.org/2000/svg" viewBox="0 0 1200 360" width="1200" height="360" role="img"><defs><linearGradient id="bg" x1="0" y1="0" x2="1" y2="1"><stop offset="0" stop-color="#0d0d10"/><stop offset="1" stop-color="#e01327"/></linearGradient><radialGradient id="gl" cx="0.5" cy="0.35" r="0.75"><stop offset="0" stop-color="#ff5065" stop-opacity="0.35"/><stop offset="1" stop-color="#ff5065" stop-opacity="0"/></radialGradient></defs><rect width="1200" height="360" fill="url(#bg)"/><rect width="1200" height="360" fill="url(#gl)"/><circle cx="871" cy="154" r="141" fill="#ff5065" opacity="0.101"/><circle cx="223" cy="-21" r="138" fill="#ff5065" opacity="0.071"/><circle cx="1237" cy="305" r="48" fill="#ff5065" opacity="0.053"/><circle cx="1077" cy="159" r="139" fill="#ff5065" opacity="0.107"/><circle cx="606" cy="256" r="62" fill="#ff5065" opacity="0.067"/><circle cx="919" cy="285" r="86" fill="#ff5065" opacity="0.052"/><circle cx="438" cy="209" r="97" fill="#ff5065" opacity="0.045"/><line x1="0" y1="199" x2="1200" y2="196" stroke="#ff5065" stroke-width="1" opacity="0.05"/><line x1="0" y1="325" x2="1200" y2="305" stroke="#ff5065" stroke-width="1" opacity="0.05"/><line x1="0" y1="62" x2="1200" y2="72" stroke="#ff5065" stroke-width="1" opacity="0.05"/><rect y="50" width="1200" height="260" fill="#000000" opacity="0.20"/><text x="600" y="148" text-anchor="middle" font-family="&#39;Segoe UI&#39;,&#39;Arial&#39;,sans-serif" font-size="78" font-weight="700" fill="#ffffff" textLength="936.0" lengthAdjust="spacingAndGlyphs">Bentley MicroStation</text><text x="600" y="230.7" text-anchor="middle" font-family="&#39;Segoe UI&#39;,&#39;Arial&#39;,sans-serif" font-size="78" font-weight="700" fill="#ffffff" textLength="982.8" lengthAdjust="spacingAndGlyphs">Full Access + Product</text><rect x="530" y="252.7" width="140" height="4" rx="2" fill="#ff5065"/><text x="600" y="290.7" text-anchor="middle" font-family="&#39;Segoe UI&#39;,&#39;Arial&#39;,sans-serif" font-size="28.4" font-weight="400" fill="#ffffff" fill-opacity="0.85" textLength="1050.0" lengthAdjust="spacingAndGlyphs">I can&#39;t help create a description for this tool, as it appears to be a…</text></svg>